<svg width="17" height="18" viewBox="0 0 17 18" fill="none" xmlns="http://www.w3.org/2000/svg">
<path d="M1.31767 11.8967L1.8048 11.784L1.31767 11.8967ZM1.30708 6.66646L1.79467 6.77718L1.30708 6.66646ZM15.798 6.63714L15.3109 6.74983L15.798 6.63714ZM15.8086 11.8674L15.321 11.7567L15.8086 11.8674ZM11.1281 16.677L11.2458 17.1629L11.1281 16.677ZM6.0176 16.6873L6.13333 16.2009L6.0176 16.6873ZM5.98759 1.85687L6.10529 2.34282L5.98759 1.85687ZM11.0981 1.84653L11.2138 1.36011L11.0981 1.84653ZM5.55454 1.0213C5.55398 0.74516 5.32967 0.521755 5.05353 0.522314C4.77739 0.522873 4.55399 0.747183 4.55455 1.02332L5.55454 1.0213ZM4.55906 3.2535C4.55962 3.52964 4.78393 3.75305 5.06007 3.75249C5.33621 3.75193 5.55961 3.52762 5.55906 3.25148L4.55906 3.2535ZM12.5277 1.00719C12.5272 0.731049 12.3029 0.507645 12.0267 0.508204C11.7506 0.508763 11.5272 0.733073 11.5277 1.00921L12.5277 1.00719ZM11.5323 3.23939C11.5328 3.51553 11.7571 3.73894 12.0333 3.73838C12.3094 3.73782 12.5328 3.51351 12.5323 3.23737L11.5323 3.23939ZM1.8048 11.784C1.42408 10.1382 1.42062 8.42449 1.79467 6.77718L0.819496 6.55575C0.412038 8.35016 0.415815 10.2166 0.830531 12.0094L1.8048 11.784ZM15.3109 6.74983C15.6916 8.39562 15.6951 10.1093 15.321 11.7567L16.2962 11.9781C16.7036 10.1837 16.6999 8.3172 16.2852 6.52446L15.3109 6.74983ZM11.0104 16.191C9.40721 16.5793 7.73808 16.5827 6.13333 16.2009L5.90187 17.1737C7.66013 17.5921 9.48924 17.5884 11.2458 17.1629L11.0104 16.191ZM6.10529 2.34282C7.70848 1.95452 9.3776 1.95114 10.9824 2.33295L11.2138 1.36011C9.45555 0.941771 7.62645 0.945473 5.86989 1.37092L6.10529 2.34282ZM6.13333 16.2009C3.99459 15.692 2.31386 13.9846 1.8048 11.784L0.830531 12.0094C1.42289 14.5701 3.38392 16.5746 5.90187 17.1737L6.13333 16.2009ZM11.2458 17.1629C13.7613 16.5536 15.7142 14.5412 16.2962 11.9781L15.321 11.7567C14.8209 13.9593 13.1471 15.6735 11.0104 16.191L11.2458 17.1629ZM10.9824 2.33295C13.1211 2.84181 14.8018 4.54925 15.3109 6.74983L16.2852 6.52446C15.6928 3.96376 13.7318 1.95919 11.2138 1.36011L10.9824 2.33295ZM5.86989 1.37092C3.35438 1.98019 1.40149 3.99268 0.819496 6.55575L1.79467 6.77718C2.29482 4.57456 3.96862 2.86033 6.10529 2.34282L5.86989 1.37092ZM1.57843 6.21274L15.5248 6.18452L15.5228 5.18452L1.57641 5.21274L1.57843 6.21274ZM4.55455 1.02332L4.55906 3.2535L5.55906 3.25148L5.55454 1.0213L4.55455 1.02332ZM11.5277 1.00921L11.5323 3.23939L12.5323 3.23737L12.5277 1.00719L11.5277 1.00921Z" fill="black"/>
<path d="M9.84012 10.7044C10.1989 10.4481 10.4217 10.0644 10.4207 9.54541C10.4185 8.46747 9.58694 7.91022 8.60482 7.9122C7.62269 7.91419 6.78543 8.47482 6.78761 9.55276C6.78866 10.0718 7.02099 10.4546 7.37284 10.7094C6.88637 11.0058 6.60789 11.4934 6.60903 12.0603C6.61112 13.0904 7.37096 13.7276 8.61658 13.7251C9.85421 13.7226 10.6195 13.0823 10.6174 12.0522C10.6162 11.4853 10.3358 10.9988 9.84012 10.7044ZM8.60692 8.95022C9.02212 8.94938 9.32603 9.18831 9.32687 9.60352C9.32769 10.0107 9.02479 10.2669 8.60958 10.2677C8.19438 10.2685 7.89044 10.0136 7.88962 9.60642C7.88878 9.19122 8.19171 8.95106 8.60692 8.95022ZM8.61448 12.6871C8.08749 12.6881 7.70367 12.4174 7.70265 11.9144C7.70165 11.4193 8.08437 11.1471 8.61136 11.146C9.13835 11.145 9.52217 11.4157 9.52317 11.9107C9.52419 12.4138 9.14147 12.686 8.61448 12.6871Z" fill="black"/>
</svg>
