<svg width="28" height="28" viewBox="0 0 28 28" fill="none" xmlns="http://www.w3.org/2000/svg">
<path d="M14.1835 7.29249C10.4211 7.29249 7.3863 10.3273 7.3863 14.0897C7.3863 17.8521 10.4211 20.8869 14.1835 20.8869C17.9459 20.8869 20.9807 17.8521 20.9807 14.0897C20.9807 10.3273 17.9459 7.29249 14.1835 7.29249ZM14.1835 18.5087C11.7521 18.5087 9.76442 16.527 9.76442 14.0897C9.76442 11.6524 11.7462 9.67062 14.1835 9.67062C16.6208 9.67062 18.6025 11.6524 18.6025 14.0897C18.6025 16.527 16.6148 18.5087 14.1835 18.5087ZM22.8441 7.01445C22.8441 7.8959 22.1342 8.59987 21.2587 8.59987C20.3773 8.59987 19.6733 7.88998 19.6733 7.01445C19.6733 6.13892 20.3832 5.42903 21.2587 5.42903C22.1342 5.42903 22.8441 6.13892 22.8441 7.01445ZM27.346 8.62353C27.2454 6.49978 26.7603 4.61858 25.2045 3.06865C23.6546 1.51873 21.7734 1.03364 19.6496 0.927157C17.4608 0.802927 10.9002 0.802927 8.71142 0.927157C6.59359 1.02772 4.71238 1.51282 3.15654 3.06274C1.60071 4.61266 1.12153 6.49387 1.01505 8.61762C0.890817 10.8064 0.890817 17.367 1.01505 19.5558C1.11562 21.6796 1.60071 23.5608 3.15654 25.1107C4.71238 26.6606 6.58767 27.1457 8.71142 27.2522C10.9002 27.3764 17.4608 27.3764 19.6496 27.2522C21.7734 27.1516 23.6546 26.6665 25.2045 25.1107C26.7544 23.5608 27.2395 21.6796 27.346 19.5558C27.4702 17.367 27.4702 10.8124 27.346 8.62353ZM24.5183 21.9044C24.0568 23.0639 23.1636 23.9571 21.9982 24.4245C20.253 25.1166 16.112 24.9569 14.1835 24.9569C12.255 24.9569 8.10802 25.1107 6.36879 24.4245C5.20931 23.963 4.31603 23.0698 3.84869 21.9044C3.15654 20.1592 3.31627 16.0182 3.31627 14.0897C3.31627 12.1611 3.16246 8.01421 3.84869 6.27498C4.31011 5.1155 5.20339 4.22222 6.36879 3.75488C8.11393 3.06274 12.255 3.22246 14.1835 3.22246C16.112 3.22246 20.2589 3.06865 21.9982 3.75488C23.1577 4.21631 24.0509 5.10958 24.5183 6.27498C25.2104 8.02013 25.0507 12.1611 25.0507 14.0897C25.0507 16.0182 25.2104 20.1651 24.5183 21.9044Z" fill="white"/>
</svg>
