<svg width="31" height="26" viewBox="0 0 31 26" fill="none" xmlns="http://www.w3.org/2000/svg">
<path d="M27.1751 6.92173C27.1944 7.19078 27.1944 7.45988 27.1944 7.72893C27.1944 15.9352 20.9483 25.3908 9.53244 25.3908C6.01542 25.3908 2.74827 24.3722 0 22.6042C0.499702 22.6618 0.980119 22.681 1.49905 22.681C4.40101 22.681 7.07244 21.7009 9.20572 20.0289C6.47667 19.9712 4.18964 18.1839 3.40167 15.7239C3.78607 15.7815 4.17042 15.8199 4.57405 15.8199C5.13137 15.8199 5.68875 15.743 6.20762 15.6086C3.36327 15.032 1.22994 12.5336 1.22994 9.51626V9.43941C2.05631 9.90066 3.01732 10.1889 4.03583 10.2273C2.36381 9.11263 1.26839 7.21 1.26839 5.05751C1.26839 3.90441 1.57583 2.84739 2.11399 1.92489C5.16976 5.69173 9.76304 8.15167 14.9136 8.42078C14.8175 7.95953 14.7598 7.47911 14.7598 6.99864C14.7598 3.57768 17.5273 0.791016 20.9674 0.791016C22.7548 0.791016 24.3691 1.54054 25.503 2.75131C26.906 2.48227 28.2513 1.96334 29.4429 1.25227C28.9816 2.69369 28.0014 3.90447 26.7138 4.67316C27.963 4.53869 29.1738 4.19268 30.2885 3.71227C29.443 4.94221 28.3859 6.03762 27.1751 6.92173V6.92173Z" fill="white"/>
</svg>
