<svg width="17" height="14" viewBox="0 0 17 14" fill="none" xmlns="http://www.w3.org/2000/svg">
<path d="M15.542 8.35311C15.5227 8.65061 15.5031 8.94848 15.485 9.24634C15.4571 9.69912 15.4237 10.1497 15.3094 10.5923C15.0554 11.5694 14.48 12.2173 13.4616 12.3922C13.0593 12.4615 12.6457 12.4764 12.2364 12.4902C10.9002 12.5355 9.56331 12.6088 8.2271 12.599C6.57706 12.5849 4.92739 12.5047 3.27845 12.4361C2.78503 12.4154 2.30359 12.307 1.87766 12.0283C1.35776 11.6884 1.08747 11.1866 0.93836 10.6025C0.754418 9.8798 0.751878 9.13859 0.728659 8.40209C0.681857 6.94398 0.678954 5.48514 0.824075 4.03211C0.882487 3.448 1.03124 2.87912 1.40456 2.40385C1.77172 1.93619 2.25897 1.63869 2.84961 1.58101C3.62239 1.50591 4.39915 1.4533 5.17519 1.43843C6.73525 1.40831 8.29313 1.38945 9.85174 1.40614C10.9561 1.41775 12.0609 1.48269 13.1638 1.54799C13.8752 1.59008 14.4782 1.88214 14.9118 2.46661C15.1657 2.81092 15.3047 3.2129 15.3602 3.63013C15.4328 4.18377 15.4643 4.74321 15.5133 5.29903C15.5238 5.41875 15.5325 5.53848 15.5423 5.65784L15.542 8.35311ZM8.44696 2.22172C7.081 2.25474 6.04302 2.27251 5.00576 2.30734C4.37412 2.32838 3.74175 2.35922 3.11228 2.41618C2.50567 2.4706 2.06886 2.76919 1.86061 3.37254C1.71222 3.80318 1.66433 4.24581 1.63857 4.69459C1.54678 6.22769 1.54824 7.76494 1.64293 9.29786C1.67248 9.69149 1.72885 10.0827 1.81163 10.4686C1.86315 10.7226 1.96945 10.962 2.16827 11.1507C2.42695 11.3967 2.74404 11.5019 3.08471 11.5349C3.59264 11.5842 4.10383 11.6271 4.61466 11.6477C6.95039 11.741 9.28613 11.7631 11.6219 11.6525C12.1809 11.626 12.7415 11.6006 13.2966 11.5353C13.8074 11.475 14.1673 11.1917 14.3596 10.6939C14.541 10.2223 14.5856 9.72959 14.6135 9.23291C14.6892 7.91662 14.6975 6.5973 14.6382 5.28016C14.6121 4.68843 14.6161 4.09125 14.4438 3.51476C14.3531 3.21109 14.2348 2.92846 13.9678 2.72529C13.6517 2.48512 13.2871 2.40784 12.9084 2.39224C11.3131 2.3273 9.71641 2.2707 8.44696 2.22317V2.22172Z" fill="white"/>
<path d="M6.24078 6.81705C6.24078 6.25688 6.24078 5.69671 6.24078 5.13654C6.24078 4.57637 6.70227 4.29774 7.19315 4.56513C8.2431 5.13727 9.29052 5.71485 10.3408 6.287C10.5712 6.41253 10.7192 6.59103 10.7171 6.85841C10.7149 7.1258 10.5614 7.30103 10.3314 7.42439C9.28507 7.98383 8.23984 8.54497 7.19568 9.1078C6.70118 9.37265 6.2426 9.09982 6.24115 8.5411C6.23933 7.96642 6.24078 7.39174 6.24078 6.81705ZM9.55899 6.85079L7.12058 5.51604V8.16233L9.55899 6.85079Z" fill="white"/>
</svg>
